<svg width="20" height="20" viewBox="0 0 20 20" fill="none" xmlns="http://www.w3.org/2000/svg">
<circle cx="10" cy="10" r="10" fill="#0683F9"/>
<circle cx="10" cy="10" r="10" fill="white" fill-opacity="0.9"/>
<path d="M6.22656 4.57812H9.61719C11.1901 4.57812 12.3255 4.80729 13.0234 5.26562C13.7266 5.72396 14.0781 6.44792 14.0781 7.4375C14.0781 8.10417 13.9062 8.65885 13.5625 9.10156C13.2188 9.54427 12.724 9.82292 12.0781 9.9375V10.0156C12.8802 10.1667 13.4688 10.4661 13.8438 10.9141C14.224 11.3568 14.4141 11.9583 14.4141 12.7188C14.4141 13.7448 14.0547 14.5495 13.3359 15.1328C12.6224 15.7109 11.6276 16 10.3516 16H6.22656V4.57812ZM8.09375 9.29688H9.89062C10.6719 9.29688 11.2422 9.17448 11.6016 8.92969C11.9609 8.67969 12.1406 8.25781 12.1406 7.66406C12.1406 7.1276 11.9453 6.73958 11.5547 6.5C11.1693 6.26042 10.5547 6.14062 9.71094 6.14062H8.09375V9.29688ZM8.09375 10.8125V14.4297H10.0781C10.8594 14.4297 11.4479 14.2812 11.8438 13.9844C12.2448 13.6823 12.4453 13.2083 12.4453 12.5625C12.4453 11.9688 12.2422 11.5286 11.8359 11.2422C11.4297 10.9557 10.8125 10.8125 9.98438 10.8125H8.09375Z" fill="#0683F9"/>
<path d="M6.22656 4.57812H9.61719C11.1901 4.57812 12.3255 4.80729 13.0234 5.26562C13.7266 5.72396 14.0781 6.44792 14.0781 7.4375C14.0781 8.10417 13.9062 8.65885 13.5625 9.10156C13.2188 9.54427 12.724 9.82292 12.0781 9.9375V10.0156C12.8802 10.1667 13.4688 10.4661 13.8438 10.9141C14.224 11.3568 14.4141 11.9583 14.4141 12.7188C14.4141 13.7448 14.0547 14.5495 13.3359 15.1328C12.6224 15.7109 11.6276 16 10.3516 16H6.22656V4.57812ZM8.09375 9.29688H9.89062C10.6719 9.29688 11.2422 9.17448 11.6016 8.92969C11.9609 8.67969 12.1406 8.25781 12.1406 7.66406C12.1406 7.1276 11.9453 6.73958 11.5547 6.5C11.1693 6.26042 10.5547 6.14062 9.71094 6.14062H8.09375V9.29688ZM8.09375 10.8125V14.4297H10.0781C10.8594 14.4297 11.4479 14.2812 11.8438 13.9844C12.2448 13.6823 12.4453 13.2083 12.4453 12.5625C12.4453 11.9688 12.2422 11.5286 11.8359 11.2422C11.4297 10.9557 10.8125 10.8125 9.98438 10.8125H8.09375Z" fill="white" fill-opacity="0.5"/>
</svg>
