<svg width="20" height="20" viewBox="0 0 20 20" fill="none" xmlns="http://www.w3.org/2000/svg">
<circle cx="10" cy="10" r="10" fill="#886BFF"/>
<circle cx="10" cy="10" r="10" fill="white" fill-opacity="0.9"/>
<path d="M8.25781 9.89062H9.55469C10.4245 9.89062 11.0547 9.72917 11.4453 9.40625C11.8359 9.08333 12.0312 8.60417 12.0312 7.96875C12.0312 7.32292 11.8203 6.85938 11.3984 6.57812C10.9766 6.29688 10.3411 6.15625 9.49219 6.15625H8.25781V9.89062ZM8.25781 11.4375V16H6.39062V4.57812H9.61719C11.0911 4.57812 12.1823 4.85417 12.8906 5.40625C13.599 5.95833 13.9531 6.79167 13.9531 7.90625C13.9531 9.32812 13.2135 10.3411 11.7344 10.9453L14.9609 16H12.8359L10.1016 11.4375H8.25781Z" fill="#886BFF"/>
<path d="M8.25781 9.89062H9.55469C10.4245 9.89062 11.0547 9.72917 11.4453 9.40625C11.8359 9.08333 12.0312 8.60417 12.0312 7.96875C12.0312 7.32292 11.8203 6.85938 11.3984 6.57812C10.9766 6.29688 10.3411 6.15625 9.49219 6.15625H8.25781V9.89062ZM8.25781 11.4375V16H6.39062V4.57812H9.61719C11.0911 4.57812 12.1823 4.85417 12.8906 5.40625C13.599 5.95833 13.9531 6.79167 13.9531 7.90625C13.9531 9.32812 13.2135 10.3411 11.7344 10.9453L14.9609 16H12.8359L10.1016 11.4375H8.25781Z" fill="white" fill-opacity="0.5"/>
</svg>
